<mxfile host="app.diagrams.net" modified="2020-09-29T21:59:08.581Z" agent="5.0 (Windows NT 10.0; Win64; x64) AppleWebKit/537.36 (KHTML, like Gecko) Chrome/85.0.4183.121 Safari/537.36" etag="YYa8-bhnAQeRwbm5ummK" version="13.7.6" type="github">
  <diagram id="gWOClLnCRxQ2_SpWejM6" name="Page-1">
    <mxGraphModel dx="723" dy="402" grid="1" gridSize="10" guides="1" tooltips="1" connect="1" arrows="1" fold="1" page="1" pageScale="1" pageWidth="827" pageHeight="1169" math="0" shadow="0">
      <root>
        <mxCell id="0" />
        <mxCell id="1" parent="0" />
        <mxCell id="bxJoqrMWLEl8LGf__zKg-1" value="Actor" style="shape=umlActor;verticalLabelPosition=bottom;verticalAlign=top;html=1;outlineConnect=0;" vertex="1" parent="1">
          <mxGeometry x="200" y="210" width="30" height="60" as="geometry" />
        </mxCell>
        <mxCell id="bxJoqrMWLEl8LGf__zKg-3" value="restaurante" style="html=1;verticalAlign=bottom;endArrow=block;" edge="1" parent="1">
          <mxGeometry width="80" relative="1" as="geometry">
            <mxPoint x="130" y="310" as="sourcePoint" />
            <mxPoint x="200" y="250" as="targetPoint" />
            <Array as="points" />
          </mxGeometry>
        </mxCell>
        <mxCell id="bxJoqrMWLEl8LGf__zKg-8" value="Registrar restaurante" style="ellipse;whiteSpace=wrap;html=1;" vertex="1" parent="1">
          <mxGeometry x="290" y="190" width="100" height="50" as="geometry" />
        </mxCell>
      </root>
    </mxGraphModel>
  </diagram>
</mxfile>
